<?xml version="1.0" encoding="utf-8"?>
<!-- Svg Vector Icons : http://www.onlinewebfonts.com/icon -->
<!DOCTYPE svg PUBLIC "-//W3C//DTD SVG 1.1//EN" "http://www.w3.org/Graphics/SVG/1.1/DTD/svg11.dtd">
<svg version="1.1" xmlns="http://www.w3.org/2000/svg" xmlns:xlink="http://www.w3.org/1999/xlink" x="0px" y="0px" viewBox="0 0 256 256" enable-background="new 0 0 256 256" xml:space="preserve">
<metadata> Svg Vector Icons : http://www.onlinewebfonts.com/icon </metadata>
<g><g><g><path fill="#000000" d="M68.5,6c-2.4,0.7-4.9,3.4-5.6,6c-0.4,1.4-0.5,7.4-0.4,16.5c0.2,16,0.3,16.8,4.2,19.2c3.9,2.4,9.4,1,11.8-3c1-1.7,1.1-2.8,1.1-17.4c0-14.6-0.1-15.7-1.1-17.4C76.5,6.6,72.2,4.9,68.5,6z"/><path fill="#000000" d="M129.8,6c-2.4,0.7-4.9,3.4-5.6,6c-0.4,1.4-0.5,7.4-0.4,16.5c0.2,16,0.3,16.8,4.2,19.2c3.9,2.4,9.4,1,11.8-3c1-1.7,1.1-2.8,1.1-17.4c0-14.6-0.1-15.7-1.1-17.4C137.8,6.6,133.5,4.9,129.8,6z"/><path fill="#000000" d="M191.1,6c-2.4,0.7-4.9,3.4-5.6,6c-0.4,1.4-0.5,7.4-0.4,16.5c0.2,16,0.3,16.8,4.2,19.2c3.9,2.4,9.4,1,11.8-3c1-1.7,1.1-2.8,1.1-17.4c0-14.6-0.1-15.7-1.1-17.4C199.1,6.6,194.8,4.9,191.1,6z"/><path fill="#000000" d="M40.4,23.4c-8.2,1.1-13.9,4-20,10.1c-4.9,4.8-7.7,9.5-9.4,15.6c-0.9,3.4-1,7.7-1,87.3c0,92.6-0.3,86.1,3.7,94.5c4.1,8.5,12.8,15.7,22.3,18.5c3.4,0.9,7.9,1,92,1c84.1,0,88.6-0.1,92-1c11.8-3.3,21.7-13.2,25-25c0.9-3.4,1-7.7,1-87.6c0-79.9-0.1-84.2-1-87.6c-2.7-9.5-9.9-18.3-18.5-22.3c-4.6-2.1-7.7-3-12.7-3.6l-2.6-0.3v10.8c0,10.8,0,10.8-1.6,14.1c-2,4.1-4.8,6.9-9,8.8c-2.8,1.3-3.7,1.4-7.7,1.2c-7-0.4-12-3.6-15.2-9.7c-1.3-2.3-1.3-3.1-1.5-13.9l-0.2-11.3H163h-13.1v10.8c0,10.8,0,10.8-1.6,14.1c-2,4.1-4.8,6.9-9,8.8c-2.8,1.3-3.7,1.4-7.7,1.2c-6.9-0.4-11.8-3.5-15-9.5c-1.4-2.7-1.5-3-1.6-14.1l-0.2-11.3h-13.1H88.6l-0.2,11.3c-0.2,11.1-0.2,11.4-1.6,14.1c-1.8,3.3-4.8,6.2-8.1,8c-2.1,1.1-3.3,1.3-7.7,1.3c-4.6,0-5.5-0.2-7.9-1.5c-3.3-1.8-6.2-4.8-8-8.1c-1.3-2.3-1.3-3.1-1.5-13.9l-0.2-11.3l-5,0.1C45.7,23,42,23.2,40.4,23.4z M228.7,156.3v63.4l-1.6,3.3c-1.9,4.1-4.8,6.9-8.9,8.8l-3.1,1.4l-87.8-0.1l-87.8-0.2l-2.7-1.5c-3.6-1.9-6.5-4.9-8.2-8.7l-1.4-3v-63.4V93H128h100.8V156.3z"/><path fill="#000000" d="M94.8,111.1c-2.5,0.7-5,3.4-5.7,6.1c-0.3,1.3-0.5,4.7-0.4,7.8c0.2,6.2,1.1,8.3,4.3,10.3c1.8,1.1,2.6,1.2,13.1,1.2c10.6,0,11.3-0.1,13.1-1.2c3.5-2.2,4.1-3.9,4.1-11.7c0-7.8-0.6-9.5-4.1-11.7c-1.8-1.1-2.7-1.2-12.3-1.3C101.2,110.6,95.8,110.8,94.8,111.1z"/><path fill="#000000" d="M138.6,111.1c-2.5,0.7-5,3.4-5.7,6.1c-0.3,1.3-0.5,4.7-0.4,7.8c0.2,6.2,1.1,8.3,4.3,10.3c1.8,1.1,2.6,1.2,13.1,1.2c10.6,0,11.3-0.1,13.1-1.2c3.5-2.2,4.1-3.9,4.1-11.7c0-7.8-0.6-9.5-4.1-11.7c-1.8-1.1-2.7-1.2-12.3-1.3C145,110.6,139.6,110.8,138.6,111.1z"/><path fill="#000000" d="M182.4,111.1c-2.5,0.7-5,3.4-5.7,6.1c-0.3,1.3-0.5,4.7-0.4,7.8c0.2,6.2,1.1,8.3,4.3,10.3c1.8,1.1,2.6,1.2,13.1,1.2c10.6,0,11.3-0.1,13.1-1.2c3.5-2.2,4.1-3.9,4.1-11.7c0-7.8-0.6-9.5-4.1-11.7c-1.8-1.1-2.7-1.2-12.3-1.3C188.8,110.6,183.4,110.8,182.4,111.1z"/><path fill="#000000" d="M51,146.1c-2.5,0.7-5,3.4-5.7,6.1c-0.3,1.3-0.5,4.7-0.4,7.8c0.2,6.2,1.1,8.3,4.3,10.3c1.8,1.1,2.6,1.2,13.1,1.2s11.3-0.1,13.1-1.2c3.5-2.2,4.1-3.9,4.1-11.7s-0.6-9.5-4.1-11.7c-1.8-1.1-2.7-1.2-12.3-1.3C57.4,145.6,51.9,145.8,51,146.1z"/><path fill="#000000" d="M94.8,146.1c-2.5,0.7-5,3.4-5.7,6.1c-0.3,1.3-0.5,4.7-0.4,7.8c0.2,6.2,1.1,8.3,4.3,10.3c1.8,1.1,2.6,1.2,13.1,1.2c10.6,0,11.3-0.1,13.1-1.2c3.5-2.2,4.1-3.9,4.1-11.7s-0.6-9.5-4.1-11.7c-1.8-1.1-2.7-1.2-12.3-1.3C101.2,145.6,95.8,145.8,94.8,146.1z"/><path fill="#000000" d="M138.6,146.1c-2.5,0.7-5,3.4-5.7,6.1c-0.3,1.3-0.5,4.7-0.4,7.8c0.2,6.2,1.1,8.3,4.3,10.3c1.8,1.1,2.6,1.2,13.1,1.2c10.6,0,11.3-0.1,13.1-1.2c3.5-2.2,4.1-3.9,4.1-11.7s-0.6-9.5-4.1-11.7c-1.8-1.1-2.7-1.2-12.3-1.3C145,145.6,139.6,145.8,138.6,146.1z"/><path fill="#000000" d="M182.4,146.1c-2.5,0.7-5,3.4-5.7,6.1c-0.3,1.3-0.5,4.7-0.4,7.8c0.2,6.2,1.1,8.3,4.3,10.3c1.8,1.1,2.6,1.2,13.1,1.2c10.6,0,11.3-0.1,13.1-1.2c3.5-2.2,4.1-3.9,4.1-11.7s-0.6-9.5-4.1-11.7c-1.8-1.1-2.7-1.2-12.3-1.3C188.8,145.6,183.4,145.8,182.4,146.1z"/><path fill="#000000" d="M51,181.2c-2.5,0.7-5,3.4-5.7,6.1c-0.3,1.3-0.5,4.7-0.4,7.8c0.2,6.2,1.1,8.3,4.3,10.3c1.8,1.2,2.6,1.2,13.1,1.2s11.3-0.1,13.1-1.2c3.5-2.2,4.1-3.9,4.1-11.7c0-7.8-0.6-9.5-4.1-11.7c-1.8-1.1-2.7-1.2-12.3-1.3C57.4,180.7,51.9,180.8,51,181.2z"/><path fill="#000000" d="M94.8,181.2c-2.5,0.7-5,3.4-5.7,6.1c-0.3,1.3-0.5,4.7-0.4,7.8c0.2,6.2,1.1,8.3,4.3,10.3c1.8,1.2,2.6,1.2,13.1,1.2c10.6,0,11.3-0.1,13.1-1.2c3.5-2.2,4.1-3.9,4.1-11.7c0-7.8-0.6-9.5-4.1-11.7c-1.8-1.1-2.7-1.2-12.3-1.3C101.2,180.7,95.8,180.8,94.8,181.2z"/><path fill="#000000" d="M138.6,181.2c-2.5,0.7-5,3.4-5.7,6.1c-0.3,1.3-0.5,4.7-0.4,7.8c0.2,6.2,1.1,8.3,4.3,10.3c1.8,1.2,2.6,1.2,13.1,1.2c10.6,0,11.3-0.1,13.1-1.2c3.5-2.2,4.1-3.9,4.1-11.7c0-7.8-0.6-9.5-4.1-11.7c-1.8-1.1-2.7-1.2-12.3-1.3C145,180.7,139.6,180.8,138.6,181.2z"/></g></g></g>
</svg>